<svg xmlns="http://www.w3.org/2000/svg" viewBox="0 0 24 24" height="24" width="24" id="Kawaii-Manga-Pirate-Luffy-Onepiece--Streamline-Ultimate.svg"><desc>Kawaii Manga Pirate Luffy Onepiece Streamline Icon: https://streamlinehq.com</desc><g><path d="M15.25 17.2a0.76 0.76 0 0 0 -1 0.44s-0.41 1 -2.29 1 -2.27 -0.93 -2.29 -1a0.76 0.76 0 0 0 -1 -0.46 0.75 0.75 0 0 0 -0.47 0.95c0 0.08 0.7 2 3.71 2s3.68 -1.93 3.71 -2a0.74 0.74 0 0 0 -0.37 -0.93Z" fill="#000000" stroke-width="1"></path><path d="M21.4 13.58c1.6 -1 2.6 -2.28 2.6 -3.69 0 -1.9 -1.72 -3.61 -4.73 -4.7a8.58 8.58 0 0 0 -1.18 -1.65 8.25 8.25 0 0 0 -12.19 0 8.4 8.4 0 0 0 -1.17 1.65C1.72 6.28 0 8 0 9.89c0 1.41 1 2.68 2.58 3.68l-1.31 1.31a0.5 0.5 0 0 0 0.15 0.81l1.05 0.47a0.51 0.51 0 0 1 0.28 0.31 0.49 0.49 0 0 1 -0.06 0.41l-0.61 1a0.46 0.46 0 0 0 0 0.44 0.47 0.47 0 0 0 0.33 0.3 3.61 3.61 0 0 0 2.78 -0.34 7.05 7.05 0 0 0 1.11 2.05 7.25 7.25 0 0 0 11.48 0 7.36 7.36 0 0 0 1.11 -2 3.63 3.63 0 0 0 2.75 0.33 0.49 0.49 0 0 0 0.34 -0.3 0.51 0.51 0 0 0 0 -0.45l-0.62 -1a0.53 0.53 0 0 1 -0.05 -0.41 0.49 0.49 0 0 1 0.27 -0.31l1.06 -0.47a0.5 0.5 0 0 0 0.29 -0.37 0.48 0.48 0 0 0 -0.14 -0.44ZM7 4.57a6.76 6.76 0 0 1 10 0 6.87 6.87 0 0 1 1 1.51l0.05 0.1c0.07 0.15 0.14 0.3 0.2 0.45a16.81 16.81 0 0 1 -6.29 1 16.72 16.72 0 0 1 -6.28 -1 4.32 4.32 0 0 1 0.19 -0.45 0.31 0.31 0 0 0 0 -0.1A6.67 6.67 0 0 1 7 4.57ZM1.5 9.89c0 -1 0.92 -2 2.48 -2.75a8.53 8.53 0 0 0 -0.19 2.77 0.75 0.75 0 0 0 0.5 0.64c1.44 1 4.36 1.59 7.71 1.59 3.5 0 6.62 -0.69 7.94 -1.77a0.79 0.79 0 0 0 0.27 -0.43 0.11 0.11 0 0 1 0 -0.05A8.5 8.5 0 0 0 20 7.14c1.56 0.79 2.48 1.79 2.48 2.75 0 2.07 -4.31 4.37 -10.5 4.37S1.5 12 1.5 9.89Zm15.05 9.52a5.76 5.76 0 0 1 -9.1 0 5.78 5.78 0 0 1 -1.14 -4.33 23.17 23.17 0 0 0 5.69 0.68 23.17 23.17 0 0 0 5.69 -0.68 5.78 5.78 0 0 1 -1.14 4.33Z" fill="#000000" stroke-width="1"></path></g></svg>